<svg width="38" height="34" viewBox="0 0 38 34" fill="none" xmlns="http://www.w3.org/2000/svg">
<path d="M10.9846 26.1023C9.32445 26.0175 9.35571 23.6824 10.9846 23.6013C15.5986 23.6173 27.7685 23.6056 32.5292 23.6089C33.8314 23.6089 34.9454 22.7228 35.2383 21.4542L37.9416 9.74802C38.0964 9.07777 37.9401 8.38405 37.513 7.84486C37.0859 7.30567 36.4464 6.99208 35.7586 6.99208C33.8434 6.99208 17.5864 6.91849 9.25963 6.88529L7.93969 1.98774C7.62283 0.81736 6.55477 0 5.34228 0H1.11387C0.498718 0 0 0.498718 0 1.11387C0 1.72903 0.498718 2.22775 1.11387 2.22775H5.34228C5.55102 2.22775 5.73481 2.36847 5.78909 2.56874L10.8583 21.3766C9.96701 21.4089 9.1368 21.7715 8.50724 22.4102C7.84575 23.0815 7.4905 23.9701 7.50691 24.9124C7.53973 26.7968 9.09982 28.3299 10.9846 28.3299H12.6088C12.3674 28.8367 12.2319 29.4032 12.2319 30.0008C12.2319 32.1506 13.9808 33.8995 16.1306 33.8995C18.2804 33.8995 20.0293 32.1506 20.0293 30.0008C20.0293 29.4031 19.8937 28.8367 19.6523 28.3299H26.6857C26.4445 28.8365 26.309 29.4028 26.309 30.0002C26.309 32.15 28.058 33.8989 30.2077 33.8989C32.3575 33.8989 34.1065 32.1499 34.1065 30.0002C34.1065 29.3795 33.9599 28.7926 33.7007 28.2711C34.1415 28.1227 34.4594 27.7069 34.4594 27.2162C34.4594 26.601 33.9606 26.1023 33.3455 26.1023H10.9846ZM17.8015 30.0009C17.8015 30.9223 17.0519 31.6719 16.1305 31.6719C15.2091 31.6719 14.4596 30.9223 14.4596 30.0009C14.4596 29.08 15.2084 28.3308 16.1291 28.33H16.1319C17.0527 28.3308 17.8015 29.08 17.8015 30.0009ZM30.2078 31.6713C29.2865 31.6713 28.5368 30.9216 28.5368 30.0003C28.5368 29.0881 29.2718 28.3447 30.1807 28.33H30.235C31.1439 28.3447 31.8789 29.0881 31.8789 30.0003C31.8788 30.9216 31.1292 31.6713 30.2078 31.6713ZM35.7668 9.22799C35.7734 9.23631 35.7724 9.24024 35.771 9.24663L34.6319 14.1792H30.7748L31.4316 9.20222L35.7497 9.2196C35.7563 9.21975 35.7602 9.21975 35.7668 9.22799ZM24.2831 21.3811V16.407H28.2338L27.5773 21.3811H24.2831ZM18.7596 21.3811L18.0978 16.407H22.0554V21.3811H18.7596ZM13.6319 21.3811H13.6284C13.3569 21.381 13.1177 21.1979 13.0471 20.937L11.8261 16.407H15.8504L16.5122 21.3811H13.6319ZM17.8014 14.1793L17.1315 9.14467L22.0553 9.1645V14.1793H17.8014ZM24.2831 14.1793V9.17349L29.1858 9.19324L28.5278 14.1793H24.2831ZM14.8829 9.13554L15.554 14.1792H11.2257L9.86082 9.11527L14.8829 9.13554ZM32.5292 21.3811H29.8243L30.4808 16.407H34.1174L33.0676 20.9528C33.0094 21.205 32.788 21.3811 32.5292 21.3811Z" fill="black"/>
</svg>
