<svg width="38" height="38" viewBox="0 0 38 38" fill="none" xmlns="http://www.w3.org/2000/svg">
<g clip-path="url(#clip0)">
<path d="M0 19.0919V28.4081C0 30.4919 1.65484 31.9629 3.67742 31.9629H34.3226C36.3452 31.9629 38 30.4919 38 28.4081V19.0919H0Z" fill="#E13E3E"/>
<path d="M19 19.0919L34.1387 31.9629C36.1613 31.9629 38 30.4919 38 28.4081V19.0919H19Z" fill="#D12A2A"/>
<path d="M34.3226 6.03711H3.67742C1.65484 6.03711 0 7.69195 0 9.77582V19.0919H38V9.77582C38 7.69195 36.3452 6.03711 34.3226 6.03711Z" fill="white"/>
<path d="M34.3226 6.03711H3.67743L19 19.0919H38V9.77582C38 7.69195 36.3452 6.03711 34.3226 6.03711Z" fill="#E9F3F4"/>
<path d="M38 28.3468C38 30.5532 36.3452 31.9629 34.3226 31.9629H3.67742C1.65484 31.9629 0 30.3694 0 28.2855" fill="#C11414"/>
<path d="M3.67743 6.03711H34.3226C36.3452 6.03711 38 7.69195 38 9.77582V16.579" fill="#D9ECED"/>
</g>
<defs>
<clipPath id="clip0">
<rect width="38" height="38" fill="white"/>
</clipPath>
</defs>
</svg>
