<svg width="219" height="82" viewBox="0 0 219 82" fill="none" xmlns="http://www.w3.org/2000/svg">
<path d="M1.34365 27.5342V25.681C1.67169 25.681 1.99973 25.681 2.16375 25.5125C2.4918 25.5125 2.65582 25.344 2.81984 25.1755C2.98386 25.0071 3.14788 24.8386 3.14788 24.5016C3.3119 24.1647 3.3119 23.6593 3.3119 23.1538V12.2029C3.3119 11.8659 3.3119 11.6974 3.3119 11.3605C3.3119 11.192 3.3119 10.8551 3.3119 10.6866C3.3119 10.5181 3.3119 10.1811 3.3119 10.0127C3.3119 9.84419 3.3119 9.67571 3.3119 9.50723H1.17963V7.31705H9.05265V9.17029C8.72461 9.17029 8.39657 9.17028 8.23255 9.33876C8.06853 9.33876 7.74048 9.50723 7.57646 9.67571C7.41244 9.84418 7.24842 10.0127 7.24842 10.3496C7.0844 10.6866 7.0844 11.192 7.0844 11.6974V22.6484C7.0844 22.9854 7.0844 23.1538 7.0844 23.3223C7.0844 23.4908 7.0844 23.8277 7.0844 23.9962C7.0844 24.1647 7.0844 24.5016 7.0844 24.6701C7.0844 24.8386 7.0844 25.0071 7.0844 25.1755H10.8569C12.005 25.1755 12.8251 24.8386 13.4812 23.9962C14.1373 23.1538 14.4654 21.9745 14.4654 20.4582H16.2696L16.1056 27.1973H1.34365V27.5342Z" fill="white"/>
<path d="M25.4548 18.268V22.9854C25.4548 23.3223 25.4548 23.4908 25.4548 23.8277C25.4548 23.9962 25.4548 24.3332 25.4548 24.5017C25.4548 24.6701 25.4548 25.0071 25.4548 25.1756C25.4548 25.344 25.4548 25.5125 25.4548 25.681H29.2273C29.5553 25.681 30.0474 25.681 30.3754 25.5125C30.7035 25.344 31.1955 25.1756 31.5236 24.8386C31.8516 24.5016 32.0156 24.1647 32.3437 23.4908C32.5077 22.9854 32.6717 22.3115 32.6717 21.4691H34.476L34.3119 27.7027H19.714V25.8495C20.0421 25.8495 20.3701 25.8495 20.5341 25.681C20.8622 25.681 21.0262 25.5125 21.1902 25.344C21.3543 25.1756 21.5183 25.0071 21.5183 24.6701C21.6823 24.3332 21.6823 23.8278 21.6823 23.3223V12.3714C21.6823 12.0344 21.6823 11.8659 21.6823 11.529C21.6823 11.3605 21.6823 11.0235 21.6823 10.8551C21.6823 10.6866 21.6823 10.3496 21.6823 10.1812C21.6823 10.0127 21.6823 9.8442 21.6823 9.67572H19.55V7.48553H33.3278L33.4918 13.0452H31.6876C31.6876 12.2029 31.5236 11.6974 31.3596 11.192C31.1955 10.6866 30.8675 10.3496 30.5395 10.0127C30.2114 9.67573 29.8834 9.50725 29.3913 9.50725C29.0633 9.33877 28.5712 9.33877 28.2432 9.33877H27.259C26.931 9.33877 26.767 9.33877 26.4389 9.50725C26.2749 9.50725 25.9469 9.67573 25.7828 9.84421C25.6188 10.0127 25.4548 10.1811 25.4548 10.5181C25.2908 10.8551 25.2908 11.3605 25.2908 11.8659V16.0778H28.5712L28.4072 13.5507H30.5395V20.4582H28.7352C28.7352 19.7843 28.7352 19.4474 28.5712 19.1104C28.4072 18.7735 28.2432 18.4365 27.9151 18.268C27.7511 18.0996 27.423 17.9311 27.095 17.9311C26.767 17.9311 26.4389 17.9311 26.1109 17.9311L25.4548 18.268Z" fill="white"/>
<path d="M45.3014 25.8495C45.7935 25.8495 46.2855 25.8495 46.6136 25.681C46.9416 25.5125 47.4337 25.344 47.5977 25.1756C47.9257 25.0071 48.0898 24.6701 48.2538 24.3332C48.4178 23.9962 48.4178 23.6593 48.4178 23.3223C48.4178 22.8169 48.2538 22.3115 48.0898 21.9745C47.7617 21.6375 47.4337 21.3006 47.1056 20.9636C46.6136 20.6267 46.1215 20.4582 45.6294 20.2897C45.1374 20.1213 44.6453 19.7843 43.9892 19.6158C43.1691 19.2789 42.349 18.7734 41.5289 18.4365C40.7088 17.9311 40.0527 17.5941 39.5606 16.9202C39.0686 16.4148 38.5765 15.7409 38.2485 15.067C37.9204 14.3931 37.7564 13.5507 37.7564 12.5398C37.7564 12.2029 37.7564 11.6974 37.9204 11.3605C38.0845 11.0235 38.0845 10.5181 38.4125 10.1811C38.5765 9.84419 38.9046 9.33877 39.2326 9.00181C39.5606 8.66486 40.0527 8.3279 40.3808 7.99094C40.8728 7.65399 41.3649 7.48553 42.021 7.31705C42.6771 7.14857 43.3331 7.14856 44.1532 7.14856C44.4813 7.14856 44.9734 7.14857 45.3014 7.31705C45.7935 7.31705 46.1215 7.48552 46.6136 7.654C47.1056 7.82247 47.4337 7.82248 47.7617 8.15943C48.0898 8.32791 48.4178 8.49637 48.7458 8.83333L48.5818 7.654H50.7141V14.2246H48.9099C48.5818 12.5398 48.0898 11.3605 47.2697 10.6866C46.4495 9.8442 45.4654 9.50724 44.1532 9.50724C43.8252 9.50724 43.3331 9.50723 43.0051 9.67571C42.6771 9.84419 42.349 10.0127 42.021 10.1811C41.6929 10.3496 41.5289 10.6866 41.3649 11.0235C41.2009 11.3605 41.2009 11.6974 41.2009 12.0344C41.2009 12.5398 41.3649 12.8768 41.5289 13.2137C41.6929 13.5507 42.021 13.8876 42.349 14.2246C42.6771 14.5615 43.1691 14.8985 43.6612 15.067C44.1532 15.4039 44.8093 15.5724 45.6294 15.9093C46.1215 16.0778 46.6136 16.2463 47.1056 16.5833C47.5977 16.7517 48.0898 17.0887 48.5818 17.4256C49.0739 17.7626 49.566 18.0995 49.894 18.4365C50.3861 18.7734 50.7141 19.1104 51.0421 19.6158C51.3702 20.1213 51.5342 20.4582 51.8623 20.9636C52.0263 21.4691 52.1903 21.9745 52.1903 22.6484C52.1903 23.4908 52.0263 24.3332 51.6982 25.0071C51.3702 25.681 50.8781 26.3549 50.222 26.8603C49.566 27.3657 48.9099 27.7027 47.9257 28.0396C47.1056 28.3766 46.1215 28.5451 44.9734 28.5451C44.6453 28.5451 44.1532 28.5451 43.8252 28.3766C43.4972 28.3766 43.0051 28.2081 42.513 28.0396C42.021 27.8712 41.6929 27.7027 41.2009 27.5342C40.7088 27.3658 40.3808 27.1973 40.0527 26.8603L40.2167 28.0396H38.0845V21.4691H39.8887C40.0527 22.3114 40.2167 22.9854 40.5448 23.4908C40.8728 24.1647 41.2009 24.6701 41.6929 25.0071C42.185 25.344 42.6771 25.681 43.1691 25.8495C43.9892 25.8495 44.6453 25.8495 45.3014 25.8495ZM43.4972 5.63228L42.513 4.28447L45.6294 0.914936C45.7935 0.74646 46.1215 0.577978 46.2855 0.409502C46.6136 0.241025 46.7776 0.241028 47.1056 0.241028C47.2697 0.241028 47.4337 0.241025 47.5977 0.409502C47.7617 0.409502 47.9257 0.577986 48.0898 0.746462C48.2538 0.914939 48.2538 1.08341 48.4178 1.25188C48.5818 1.42036 48.5818 1.58884 48.5818 1.75732C48.5818 2.09427 48.4178 2.43122 48.2538 2.76818C48.0898 3.10513 47.7617 3.27361 47.4337 3.44208L43.4972 5.63228Z" fill="white"/>
<path d="M72.2009 27.8712H69.9046L61.0474 16.2463C60.5554 15.5724 60.0633 14.8985 59.5712 14.0561V22.8169C59.5712 23.1538 59.5712 23.3223 59.5712 23.6593C59.5712 23.8277 59.5712 24.1647 59.5712 24.3332C59.5712 24.5016 59.5712 24.8386 59.5712 25.0071C59.5712 25.1756 59.5712 25.344 59.5712 25.5125H61.7035V27.7027H55.4707V25.8495C55.7987 25.8495 56.1268 25.8494 56.2908 25.681C56.6188 25.681 56.7829 25.5125 56.9469 25.344C57.1109 25.1755 57.2749 25.0071 57.2749 24.6701C57.439 24.3332 57.4389 23.8277 57.4389 23.3223V12.3713C57.4389 12.0344 57.4389 11.8659 57.4389 11.529C57.4389 11.3605 57.4389 11.0235 57.4389 10.8551C57.4389 10.6866 57.4389 10.3496 57.4389 10.1811C57.4389 10.0127 57.4389 9.84418 57.4389 9.67571H55.3067V7.48552H59.4072L67.9363 18.4365C68.4284 19.1104 68.7564 19.6158 69.0845 19.9528C69.4125 20.4582 69.5765 20.7952 69.9046 21.1321V12.0344C69.9046 11.6974 69.9046 11.529 69.9046 11.192C69.9046 10.855 69.9046 10.6866 69.9046 10.5181C69.9046 10.3496 69.9046 10.0127 69.9046 9.84419C69.9046 9.67572 69.9046 9.50724 69.9046 9.33876H67.7723V7.14856H74.1691V9.00181C73.8411 9.00181 73.513 9.00181 73.349 9.17029C73.185 9.17029 72.857 9.33876 72.6929 9.50723C72.5289 9.67571 72.3649 9.84419 72.3649 10.1811C72.2009 10.5181 72.2009 11.0235 72.2009 11.529V27.8712Z" fill="white"/>
<path d="M83.8464 22.8169C83.8464 23.1538 83.8464 23.3223 83.8464 23.6593C83.8464 23.8277 83.8464 24.1647 83.8464 24.3332C83.8464 24.5017 83.8464 24.8386 83.8464 25.0071C83.8464 25.1756 83.8464 25.344 83.8464 25.5125H85.9787V27.7027H78.1057V25.8495C78.4337 25.8495 78.7618 25.8495 78.9258 25.681C79.2538 25.681 79.4178 25.5125 79.5819 25.344C79.7459 25.1756 79.9099 25.0071 79.9099 24.6701C79.9099 24.3332 80.0739 23.8278 80.0739 23.3223V12.3714C80.0739 12.0344 80.0739 11.8659 80.0739 11.529C80.0739 11.3605 80.0739 11.0235 80.0739 10.8551C80.0739 10.6866 80.0739 10.3496 80.0739 10.1812C80.0739 10.0127 80.0739 9.8442 80.0739 9.67572H77.9417V7.48553H85.8147V9.33877C85.4866 9.33877 85.1586 9.33877 84.9946 9.50725C84.8306 9.50725 84.5025 9.67573 84.3385 9.84421C84.1745 10.0127 84.0104 10.1811 84.0104 10.5181C83.8464 10.8551 83.8464 11.3605 83.8464 11.8659V22.8169Z" fill="white"/>
<path d="M93.6877 17.2572C93.6877 18.4365 93.8517 19.6158 94.0157 20.6267C94.3438 21.6376 94.6718 22.4799 95.1639 23.3223C95.6559 23.9962 96.312 24.6701 96.9681 25.0071C97.6242 25.344 98.4443 25.681 99.4284 25.681C100.085 25.681 100.577 25.681 101.233 25.5125C101.889 25.344 102.381 25.1756 102.873 24.8386C103.365 24.5017 104.021 24.1647 104.513 23.6593C105.005 23.1539 105.497 22.8169 105.825 22.143L107.137 23.3223C106.481 24.3332 105.825 25.0071 105.005 25.681C104.185 26.3549 103.529 26.6919 102.873 27.0288C102.217 27.3658 101.397 27.5342 100.741 27.7027C100.085 27.8712 99.4284 27.8712 98.9364 27.8712C97.4602 27.8712 96.148 27.5342 94.9999 27.0288C93.8517 26.5234 92.8676 25.8495 92.0475 24.8386C91.2274 23.8277 90.5713 22.8169 90.0792 21.6376C89.5872 20.4582 89.4231 19.1104 89.4231 17.5941C89.4231 16.7518 89.5871 15.9094 89.7512 15.067C89.9152 14.2246 90.2432 13.3822 90.5713 12.5398C90.8993 11.6975 91.3914 11.0236 91.8834 10.3496C92.3755 9.67574 93.0316 9.00184 93.6877 8.49641C94.3438 7.99098 95.1639 7.65403 96.148 7.31708C96.9681 6.98013 97.9522 6.81165 99.1004 6.81165C99.4284 6.81165 99.9205 6.81164 100.249 6.98012C100.577 6.98012 101.069 7.1486 101.397 7.31708C101.889 7.48556 102.217 7.65402 102.545 7.8225C102.873 7.99098 103.365 8.15946 103.693 8.49641V7.31708H105.825V13.8876H104.021C103.693 12.3714 103.201 11.192 102.545 10.3496C101.725 9.50726 100.741 9.17032 99.4284 9.17032C98.4443 9.17032 97.6242 9.3388 96.9681 9.84422C96.312 10.3497 95.6559 10.8551 95.1639 11.6975C94.6718 12.3714 94.3438 13.3822 94.1798 14.2246C93.6877 15.2355 93.6877 16.2463 93.6877 17.2572Z" fill="white"/>
<path d="M116.323 22.143C115.995 22.8169 115.503 23.3223 115.174 23.8277C114.846 24.3332 114.354 25.0071 114.026 25.344L119.111 25.5125C119.603 25.5125 120.095 25.5125 120.587 25.344C121.079 25.1756 121.407 25.0071 121.735 24.6701C122.063 24.3332 122.227 23.8278 122.391 23.3223C122.555 22.8169 122.719 22.143 122.719 21.3006H124.524L124.36 27.3657H110.09V25.344L118.291 12.3714C118.619 11.8659 118.947 11.3605 119.275 10.8551C119.603 10.3496 119.931 10.0127 120.259 9.50726L115.503 9.33879C115.01 9.33879 114.518 9.33878 114.026 9.50726C113.534 9.67574 113.206 9.84421 112.878 10.1812C112.55 10.5181 112.386 11.0236 112.222 11.529C111.894 12.2029 111.894 12.8768 111.894 13.7192H110.09L110.254 7.65402H124.36V9.84422L116.323 22.143Z" fill="white"/>
<path d="M127.804 17.5941C127.804 16.7517 127.968 15.9093 128.132 15.2354C128.296 14.3931 128.624 13.5507 128.952 12.8768C129.28 12.0344 129.772 11.3605 130.264 10.6866C130.757 10.0127 131.413 9.33875 132.069 8.83332C132.725 8.3279 133.545 7.99095 134.529 7.65399C135.513 7.31704 136.497 7.14856 137.481 7.14856C138.63 7.14856 139.614 7.31704 140.598 7.65399C141.582 7.99095 142.402 8.3279 143.058 8.83332C143.714 9.33875 144.37 10.0127 144.862 10.6866C145.354 11.3605 145.846 12.0344 146.175 12.8768C146.503 13.7191 146.831 14.3931 146.995 15.2354C147.159 16.0778 147.159 16.9202 147.159 17.5941C147.159 18.4365 146.995 19.1104 146.831 19.9528C146.667 20.7952 146.339 21.6375 146.011 22.3114C145.682 23.1538 145.19 23.8277 144.698 24.5016C144.206 25.1755 143.55 25.8494 142.894 26.3549C142.238 26.8603 141.418 27.1973 140.434 27.5342C139.614 27.8712 138.466 28.0396 137.481 28.0396C136.333 28.0396 135.185 27.8712 134.365 27.5342C133.381 27.1973 132.561 26.8603 131.905 26.3549C131.249 25.8494 130.593 25.344 130.1 24.6701C129.608 23.9962 129.116 23.3223 128.788 22.4799C128.46 21.6375 128.296 20.9636 128.132 20.1213C127.804 19.2789 127.804 18.4365 127.804 17.5941ZM132.069 17.2571C132.069 17.9311 132.069 18.4365 132.233 19.1104C132.233 19.7843 132.397 20.4582 132.561 21.1321C132.725 21.806 133.053 22.3114 133.217 22.9853C133.545 23.4908 133.873 23.9962 134.201 24.5016C134.529 25.0071 135.021 25.344 135.677 25.5125C136.169 25.8495 136.825 25.8495 137.481 25.8495C138.137 25.8495 138.63 25.681 139.122 25.5125C139.614 25.344 140.106 25.0071 140.434 24.6701C140.762 24.3332 141.09 23.8277 141.418 23.3223C141.746 22.8169 141.91 22.3115 142.074 21.6375C142.238 21.1321 142.402 20.4582 142.402 19.7843C142.402 19.1104 142.566 18.605 142.566 17.9311C142.566 16.5832 142.402 15.4039 142.238 14.3931C142.074 13.3822 141.746 12.3713 141.254 11.529C140.762 10.6866 140.27 10.1811 139.614 9.67571C138.958 9.17028 138.137 9.00181 137.153 9.00181C136.497 9.00181 135.841 9.17028 135.349 9.33876C134.857 9.50724 134.365 9.84419 134.037 10.3496C133.709 10.6866 133.381 11.192 133.053 11.6974C132.725 12.2029 132.561 12.7083 132.397 13.3822C132.233 14.0561 132.069 14.5615 132.069 15.2354C132.233 16.0778 132.069 16.5832 132.069 17.2571ZM136.825 5.63228L135.841 4.28447L138.958 0.914936C139.122 0.74646 139.45 0.577978 139.614 0.409502C139.942 0.241025 140.106 0.241028 140.434 0.241028C140.598 0.241028 140.762 0.241025 140.926 0.409502C141.09 0.409502 141.254 0.577986 141.418 0.746462C141.582 0.914939 141.582 1.08341 141.746 1.25188C141.746 1.42036 141.91 1.58884 141.91 1.75732C141.91 2.09427 141.746 2.43122 141.582 2.76817C141.418 3.10513 141.09 3.27361 140.762 3.44208L136.825 5.63228Z" fill="white"/>
<path d="M165.037 7.65402L168.153 18.0995C168.317 18.7734 168.481 19.4474 168.645 20.1213C168.809 20.7952 168.974 21.4691 169.138 22.143C169.302 21.4691 169.466 20.7952 169.63 20.2897C169.794 19.6158 169.958 18.9419 170.122 18.268L171.598 12.3714C171.762 11.8659 171.926 11.529 172.09 11.0235C172.254 10.5181 172.418 10.1812 172.746 9.84422L170.614 10.0127V7.8225H176.847V9.67573C176.519 9.67573 176.19 9.67574 176.026 9.84422C175.698 10.0127 175.534 10.1812 175.206 10.3496C174.878 10.5181 174.714 10.8551 174.55 11.192C174.386 11.529 174.222 12.0344 173.894 12.5398L169.302 27.7027H166.841L163.561 17.5941C163.397 16.9202 163.069 16.0778 162.905 15.4039C162.741 14.73 162.577 14.0561 162.413 13.3822C162.249 14.0561 162.249 14.73 162.085 15.2355C161.921 15.9094 161.757 16.4148 161.593 17.0887L158.476 27.7027H156.016L151.095 12.3714C151.423 12.2029 151.259 11.8659 151.259 11.6975C151.095 11.529 151.095 11.192 150.931 11.0235C150.931 10.8551 150.767 10.5181 150.767 10.3496C150.767 10.1812 150.767 10.0127 150.767 9.84422H149.291V7.65402H157.492V9.50726H157.328C156.836 9.50726 156.508 9.67574 156.18 9.84422C155.852 10.0127 155.688 10.3496 155.688 10.8551C155.688 11.0235 155.688 11.192 155.688 11.192C155.688 11.3605 155.688 11.529 155.852 11.6975L157.492 18.268C157.492 18.605 157.656 18.9419 157.656 19.1104C157.656 19.4474 157.82 19.6158 157.82 19.9528C157.82 20.2897 157.984 20.6267 157.984 20.9636C157.984 21.3006 158.148 21.806 158.148 22.143C158.148 21.9745 158.312 21.806 158.312 21.4691C158.312 21.1321 158.476 20.7952 158.64 20.4582C158.804 20.1213 158.804 19.6158 158.968 19.2789C159.132 18.9419 159.132 18.4365 159.296 18.0995C159.46 17.7626 159.46 17.4256 159.624 17.0887C159.624 16.7517 159.788 16.5833 159.788 16.4148L162.413 7.65402H165.037Z" fill="white"/>
<path d="M185.704 16.2463H187.672L189.804 12.5398C189.968 12.2029 190.132 12.0344 190.296 11.6974C190.46 11.3605 190.624 11.192 190.788 10.8551C190.952 10.5181 191.116 10.3496 191.28 10.1812C191.445 10.0127 191.609 9.8442 191.773 9.67572L189.968 9.84421V7.65401H196.693V9.50725C196.365 9.50725 196.037 9.50724 195.709 9.67572C195.381 9.67572 195.053 9.8442 194.725 10.0127C194.397 10.1812 194.069 10.5181 193.577 10.8551C193.249 11.192 192.757 11.6974 192.429 12.3714L189.804 16.7517C190.132 16.9202 190.46 17.2572 190.788 17.4256C191.116 17.7626 191.28 17.9311 191.609 18.268L194.397 22.3115C194.725 22.6484 194.889 23.1538 195.217 23.4908C195.545 23.8277 195.873 24.1647 196.201 24.5017C196.529 24.8386 196.857 25.0071 197.185 25.1756C197.513 25.344 197.841 25.5125 198.169 25.5125V27.3657H193.905C193.741 27.3657 193.577 27.1973 193.413 27.0288C193.249 26.8603 192.921 26.5234 192.757 26.3549C192.429 26.0179 192.265 25.681 191.937 25.344C191.609 25.0071 191.445 24.6701 191.28 24.5017L188.492 20.4582C188.328 20.2897 188.164 20.1213 188.164 19.9528C188 19.7843 187.836 19.6158 187.672 19.4474C187.508 19.2789 187.344 19.1104 187.18 18.9419C187.016 18.7734 186.852 18.605 186.852 18.605H185.868V22.8169C185.868 23.1538 185.868 23.3223 185.868 23.6593C185.868 23.8277 185.868 24.1647 185.868 24.3332C185.868 24.5017 185.868 24.8386 185.868 25.0071C185.868 25.1756 185.868 25.344 185.868 25.5125H188V27.7027H180.127V25.8495C180.455 25.8495 180.783 25.8495 180.947 25.681C181.111 25.5125 181.439 25.5125 181.603 25.344C181.767 25.1756 181.931 25.0071 181.931 24.6701C182.095 24.3332 182.095 23.8278 182.095 23.3223V12.3714C182.095 12.0344 182.095 11.8659 182.095 11.529C182.095 11.192 182.095 11.0235 182.095 10.8551C182.095 10.6866 182.095 10.3496 182.095 10.1812C182.095 10.0127 182.095 9.8442 182.095 9.67572H179.963V7.48553H187.836V9.33877C187.508 9.33877 187.18 9.33877 187.016 9.50725C186.852 9.50725 186.524 9.67573 186.36 9.84421C186.196 10.0127 186.032 10.1811 186.032 10.5181C185.868 10.8551 185.868 11.3605 185.868 11.8659V16.2463H185.704Z" fill="white"/>
<path d="M210.799 21.6375L204.73 21.806L204.238 23.1538C204.238 23.3223 204.074 23.4908 204.074 23.6593C204.074 23.8277 203.91 23.9962 203.91 24.3332C203.746 24.5016 203.746 24.8386 203.582 25.0071C203.418 25.1755 203.418 25.344 203.418 25.5125L205.386 25.344V27.7027H199.482V25.681C199.81 25.681 200.138 25.5125 200.466 25.344C200.794 25.1755 200.958 25.0071 201.122 24.6701C201.286 24.3332 201.45 23.9962 201.614 23.6593C201.778 23.3223 201.942 22.8169 202.106 22.4799L207.519 7.31705H209.487L215.392 22.8169C215.392 22.9853 215.556 23.1538 215.556 23.3223C215.556 23.4908 215.72 23.8277 215.72 23.9962C215.72 24.3332 215.884 24.5016 215.884 24.8386C215.884 25.1755 216.048 25.344 216.048 25.5125H217.688V27.7027H210.307V25.8494C210.799 25.8494 211.127 25.681 211.291 25.5125C211.455 25.344 211.619 25.0071 211.619 24.6701C211.619 24.5016 211.619 24.3332 211.619 23.9962C211.619 23.8277 211.455 23.4908 211.455 23.1538L210.799 21.6375ZM205.55 19.6158H210.143L208.831 16.0778C208.667 15.4039 208.339 14.73 208.175 14.0561C208.011 13.3822 207.847 12.7083 207.683 12.2029C207.683 12.5398 207.519 13.0452 207.355 13.7191C207.191 14.393 207.027 15.067 206.698 16.0778L205.55 19.6158Z" fill="white"/>
<path d="M117.963 76.8978C117.963 74.8761 115.339 73.0228 114.846 72.6859C114.19 72.3489 112.714 71.5065 110.582 71.3381C109.926 71.3381 109.27 71.3381 108.614 71.5065C107.137 71.8435 106.153 72.1805 103.365 74.0337C100.577 75.8869 99.4285 76.8978 99.2644 77.7402V77.9086V79.5934C99.2644 79.9303 99.4285 80.2673 99.7565 80.6043C100.085 80.9412 100.577 81.1097 101.397 81.1097C102.545 81.1097 104.021 80.7727 105.333 80.6043C106.481 80.4358 107.466 80.0988 108.122 80.2673C109.762 80.2673 111.074 80.7727 112.058 81.2782C112.878 81.6151 113.534 81.9521 114.354 81.9521C115.01 81.9521 115.667 81.7836 116.323 81.2782C117.307 80.6042 117.963 79.7619 117.963 78.9195V76.8978C117.963 77.0663 117.963 77.0663 117.963 76.8978C117.799 77.0663 117.963 77.0663 117.963 76.8978ZM103.529 74.2022C106.153 72.3489 107.301 72.012 108.614 71.675C109.27 71.5065 109.926 71.5065 110.418 71.5065C112.55 71.5065 114.026 72.5174 114.682 72.8543C115.175 73.1913 117.635 74.8761 117.799 76.8978C117.799 77.0663 117.799 77.2347 117.799 77.4032C117.799 77.5717 117.799 77.5717 117.799 77.7402C117.799 77.9086 117.635 78.0771 117.635 78.0771C117.635 78.0771 117.635 78.2456 117.471 78.2456C117.307 78.4141 117.307 78.5825 117.143 78.751L116.979 78.9195C116.815 79.088 116.487 79.2564 116.323 79.4249C115.667 79.9303 115.01 80.0988 114.354 80.0988C113.698 80.0988 112.878 79.7619 112.222 79.4249C111.402 79.088 110.582 78.751 109.434 78.5825C109.106 78.5825 108.614 78.4141 108.286 78.4141C107.63 78.4141 106.645 78.5825 105.497 78.751C104.513 78.9195 103.365 79.2564 102.545 79.2564C102.217 79.2564 101.889 79.2564 101.725 79.2564C101.069 79.2564 100.577 79.088 100.249 78.751C100.085 78.5825 99.9205 78.4141 99.9205 78.2456V78.0771C99.9205 77.9086 99.9205 77.7402 99.9205 77.7402C99.5925 77.0663 100.741 76.0554 103.529 74.2022Z" fill="white"/>
<path d="M107.958 78.4141C111.566 78.5826 113.042 80.9412 115.339 79.2565C118.783 76.8978 115.503 74.0337 114.026 73.1913C112.878 72.5174 110.746 71.6751 108.45 72.1805C107.137 72.5174 106.317 72.8544 103.857 74.5391C100.413 76.8978 99.4284 77.5717 100.577 78.9195C101.725 80.0989 106.317 78.2456 107.958 78.4141ZM111.73 73.8652C112.714 73.8652 113.37 74.2022 113.37 74.7076C113.37 75.2131 112.714 75.7185 111.73 75.887C110.746 75.887 110.09 75.55 110.09 75.0446C110.09 74.3707 110.746 74.0337 111.73 73.8652Z" fill="white"/>
<path d="M106.317 49.0992C107.465 48.5937 108.614 48.0883 109.762 47.2459C110.09 47.4144 110.582 47.5829 111.074 47.7514C112.058 48.9307 113.534 49.0992 114.846 48.4253C115.01 48.4253 115.01 48.2568 114.846 48.2568C114.026 47.0775 112.222 45.8981 110.91 47.2459V47.4144C110.582 47.4144 110.09 47.2459 109.762 47.0775C111.238 46.0666 112.386 44.7188 113.534 43.2025C113.862 43.371 114.354 43.2025 114.518 43.2025C116.159 43.7079 117.963 42.8656 118.947 41.3493C118.947 41.1808 118.947 41.1808 118.783 41.1808C117.143 40.8438 115.339 41.5177 114.354 43.034C114.026 43.034 113.698 43.034 113.534 43.034C113.698 42.8656 113.698 42.6971 113.862 42.5286H114.026C114.026 42.5286 114.026 42.5286 114.026 42.3601C114.682 41.3493 115.174 40.5069 115.503 39.496C116.815 38.4852 117.307 36.4634 116.651 34.9472C116.651 34.9472 116.487 34.7787 116.487 34.9472C115.667 36.295 115.175 37.6428 115.339 39.3276C115.01 40.1699 114.518 41.0123 114.026 41.8547C114.026 41.6862 114.026 41.5177 114.026 41.3493C114.682 41.0123 114.682 39.6645 114.682 39.1591C114.682 38.6536 114.682 37.1374 114.026 36.9689C113.37 36.8004 113.206 38.3167 113.206 38.6537C113.206 39.6645 113.37 40.5069 113.862 41.3493C113.862 41.6862 113.862 42.0232 114.026 42.1917C113.534 42.8656 113.042 43.5395 112.55 44.2134C112.222 44.7188 111.73 45.0558 111.402 45.3927C111.402 45.0558 111.402 44.8873 111.402 44.5503C112.222 44.0449 112.55 43.034 112.55 42.1917C112.55 41.8547 112.714 40.0015 112.058 39.833C111.566 39.6645 110.91 41.1808 110.746 41.6862C110.418 42.6971 110.418 43.7079 110.91 44.5503C110.91 44.7188 111.074 44.7188 111.074 44.7188C111.074 45.0557 111.074 45.2242 111.238 45.5612C109.762 46.909 108.122 47.9198 106.317 49.0992C106.153 48.9307 106.317 49.0992 106.317 49.0992ZM111.074 44.2134C110.746 43.034 110.91 41.5177 111.73 40.5069C112.222 40.0015 112.058 40.5069 112.058 41.0123C112.058 41.5178 112.058 41.8547 112.058 42.3601C112.058 43.034 111.73 43.8764 111.238 44.3818C111.238 43.5395 111.402 42.8656 111.73 42.0232C111.73 41.8547 111.566 41.8547 111.566 42.0232C111.238 42.5286 111.074 43.371 111.074 44.2134ZM113.534 39.3276C113.534 38.8221 113.37 38.1482 113.698 37.6428C113.698 37.3058 114.026 37.3058 114.354 37.4743C114.354 37.6428 114.518 37.8113 114.518 37.9797C114.518 38.3167 114.682 38.4852 114.682 38.8221C114.682 39.3276 114.682 40.5069 114.354 41.0123C114.354 40.3384 114.354 39.833 114.518 39.1591C114.518 38.9906 114.354 38.9906 114.354 39.1591C114.19 39.6645 114.19 40.1699 114.19 40.6754C113.698 40.1699 113.534 39.6645 113.534 39.3276ZM116.323 37.1374C116.159 37.6428 115.995 38.3167 115.667 38.8221C115.667 37.4743 115.995 36.295 116.651 35.2841C116.979 36.6319 116.651 38.1482 115.831 39.1591C116.159 38.4852 116.323 37.8113 116.323 37.1374C116.487 37.1374 116.323 37.1374 116.323 37.1374ZM116.979 42.0232C116.487 42.3601 115.995 42.6971 115.503 42.8656C115.503 42.8656 115.339 42.8656 115.01 42.8656C115.995 41.6862 117.307 41.1808 118.783 41.3493C117.963 42.3601 116.815 43.034 115.503 43.034C116.159 42.8656 116.651 42.5286 117.143 42.0232C117.307 42.1917 117.143 42.0232 116.979 42.0232ZM111.402 47.7514C112.058 47.7514 112.714 47.7514 113.206 47.4144C113.37 47.4144 113.206 47.2459 113.042 47.2459C112.386 47.4144 111.894 47.5829 111.238 47.4144C112.386 46.4036 113.862 47.2459 114.518 48.2568C113.534 48.7622 112.222 48.5938 111.402 47.7514Z" fill="white"/>
<path d="M112.55 48.7622C110.746 47.7514 109.106 46.7405 107.63 45.3927C107.63 45.0557 107.794 44.8873 107.794 44.5503C107.794 44.5503 107.958 44.5503 107.958 44.3818C108.45 43.371 108.45 42.3601 108.122 41.5177C107.958 41.1808 107.301 39.6645 106.809 39.6645C106.317 39.833 106.317 41.5177 106.317 41.8547C106.317 42.8655 106.645 43.8764 107.466 44.2133C107.466 44.3818 107.466 44.7188 107.466 45.0557C107.137 44.7188 106.645 44.2134 106.317 43.8764C105.825 43.2025 105.169 42.5286 104.841 41.8547C104.841 41.5177 105.005 41.3493 105.005 41.0123C105.497 40.1699 105.661 39.3275 105.661 38.3167C105.661 37.9797 105.497 36.4634 104.841 36.6319C104.185 36.8004 104.185 38.3167 104.185 38.8221C104.185 39.496 104.185 40.6754 104.841 41.0123C104.841 41.1808 104.841 41.3493 104.841 41.5177C104.349 40.6753 103.857 39.833 103.529 38.9906C103.693 37.4743 103.201 35.958 102.381 34.6102H102.217C101.561 36.1265 102.053 38.1482 103.365 39.1591C103.693 40.1699 104.349 41.1808 104.841 42.0232C104.841 42.0232 104.841 42.0232 104.841 42.1916C104.841 42.1916 104.841 42.3601 105.005 42.1916C105.169 42.3601 105.169 42.5286 105.333 42.6971C105.169 42.6971 104.841 42.6971 104.513 42.6971C103.529 41.1808 101.725 40.5069 100.085 40.8438C99.9205 40.8438 99.9205 41.0123 99.9205 41.0123C100.741 42.5286 102.545 43.371 104.349 42.8655C104.513 42.8655 105.005 42.8655 105.333 42.8655C106.317 44.3818 107.63 45.7296 109.106 46.7405C108.778 46.909 108.286 47.0775 107.958 47.0775C107.958 47.0775 108.122 46.909 107.958 46.909C106.809 45.5612 104.841 46.7405 104.021 47.9198C104.021 48.0883 104.021 48.0883 104.021 48.0883C105.333 48.7622 106.809 48.4253 107.794 47.4144C108.286 47.2459 108.614 47.0775 109.106 46.909C110.254 47.7514 111.402 48.4253 112.55 48.7622C112.714 48.7622 112.55 48.9307 112.55 48.7622ZM107.301 41.6862C107.301 41.5177 106.973 41.6862 107.137 41.6862C107.301 42.5286 107.466 43.2025 107.63 44.0449C107.137 43.5394 106.809 42.8655 106.809 42.0232C106.809 41.5177 106.809 41.1808 106.809 40.6753C106.809 40.1699 106.809 39.6645 107.137 40.1699C107.958 41.1808 108.286 42.5286 107.794 43.8764C107.794 43.2025 107.63 42.3601 107.301 41.6862ZM105.005 40.3384C105.005 39.833 105.005 39.3275 104.841 38.8221C104.841 38.6536 104.677 38.8221 104.677 38.8221C104.677 39.496 104.841 40.0014 104.841 40.6753C104.349 40.1699 104.513 39.1591 104.513 38.4852C104.513 38.1482 104.513 37.9797 104.677 37.6428C104.677 37.4743 104.677 37.3058 104.841 37.1373C105.333 36.9689 105.497 36.9689 105.497 37.3058C105.661 37.6428 105.661 38.4852 105.661 38.8221C105.333 39.496 105.169 40.0014 105.005 40.3384ZM102.381 36.9689C102.545 37.6428 102.709 38.3167 102.873 38.9906C102.053 37.8112 101.561 36.4634 102.053 35.1156C102.709 36.1265 103.037 37.4743 103.037 38.6536C102.873 37.9797 102.709 37.4743 102.381 36.9689C102.545 36.9689 102.381 36.9689 102.381 36.9689ZM101.725 42.0232C102.217 42.5286 102.709 42.8655 103.365 43.034C102.053 43.034 100.905 42.3601 100.085 41.3493C101.561 41.1808 102.873 41.6862 103.857 42.8655C103.529 42.8655 103.365 42.8655 103.365 42.8655C102.873 42.6971 102.381 42.3601 101.889 42.0232C101.725 41.6862 101.561 41.8547 101.725 42.0232ZM104.185 48.0883C105.005 47.0774 106.481 46.2351 107.466 47.2459C106.809 47.2459 106.317 47.2459 105.661 47.0775C105.497 47.0775 105.497 47.2459 105.497 47.2459C105.989 47.5829 106.645 47.7513 107.301 47.5829C106.645 48.2568 105.333 48.5937 104.185 48.0883Z" fill="white"/>
<path d="M75.3173 44.0449H0.851561C0.68754 44.0449 0.359497 43.8764 0.359497 43.5395C0.359497 43.371 0.523519 43.034 0.851561 43.034H75.3173C75.4813 43.034 75.8093 43.2025 75.8093 43.5395C75.6453 43.8764 75.4813 44.0449 75.3173 44.0449Z" fill="white"/>
<path d="M218.508 44.0449H141.582C141.418 44.0449 141.09 43.8764 141.09 43.5395C141.09 43.371 141.254 43.034 141.582 43.034H218.508C218.672 43.034 219 43.2025 219 43.5395C218.836 43.8764 218.672 44.0449 218.508 44.0449Z" fill="white"/>
<path d="M75.3173 59.7131H37.9204C37.7564 59.7131 37.4283 59.5446 37.4283 59.2077C37.4283 58.8707 37.5924 58.7023 37.9204 58.7023H75.1533C75.3173 58.7023 75.6453 58.8707 75.6453 59.2077C75.6453 59.5446 75.4813 59.7131 75.3173 59.7131Z" fill="white"/>
<path d="M179.799 59.7131H141.582C141.418 59.7131 141.09 59.5446 141.09 59.2077C141.09 58.8707 141.254 58.7023 141.582 58.7023H179.799C179.963 58.7023 180.291 58.8707 180.291 59.2077C180.291 59.5446 180.127 59.7131 179.799 59.7131Z" fill="white"/>
<path d="M93.0316 76.2239C92.8676 76.2239 92.8676 76.2239 92.7036 76.0554C92.5396 75.8869 92.5396 75.5499 92.7036 75.3815L125.508 41.6862C125.672 41.5177 126 41.5177 126.164 41.6862C126.328 41.8547 126.328 42.1916 126.164 42.3601L93.3597 76.0554C93.1956 76.2239 93.1956 76.2239 93.0316 76.2239Z" fill="white"/>
<path d="M125.672 76.2239C125.508 76.2239 125.508 76.2239 125.344 76.0554L92.5396 42.3601C92.3755 42.1916 92.3755 41.8547 92.5396 41.6862C92.7036 41.5177 93.0316 41.5177 93.1956 41.6862L126 75.3815C126.164 75.5499 126.164 75.8869 126 76.0554C126 76.2239 125.836 76.2239 125.672 76.2239Z" fill="white"/>
<path d="M87.4548 59.2078H84.8305C84.8305 59.3762 84.8305 59.7132 84.8305 59.8817C84.8305 60.0501 84.9945 60.2186 84.9945 60.3871C85.1585 60.5556 85.1585 60.5556 85.3225 60.724C85.4866 60.724 85.6506 60.8925 85.8146 60.8925C85.8146 60.8925 85.9786 60.8925 86.1427 60.8925C86.3067 60.8925 86.3067 60.8925 86.4707 60.724C86.6347 60.724 86.6347 60.5556 86.7988 60.5556C86.9628 60.5556 86.9628 60.3871 87.1268 60.2186L87.4548 60.5556C87.2908 60.724 87.1268 60.8925 86.9628 61.061C86.7987 61.2295 86.6347 61.2295 86.4707 61.398C86.3067 61.398 86.1427 61.5664 85.9786 61.5664C85.8146 61.5664 85.6506 61.5664 85.4866 61.5664C85.1585 61.5664 84.9945 61.5664 84.6665 61.398C84.5024 61.2295 84.1744 61.2295 84.0104 60.8925C83.8464 60.724 83.6823 60.5556 83.6823 60.2186C83.5183 59.8817 83.5183 59.7132 83.5183 59.3762C83.5183 59.0393 83.5183 58.8708 83.6823 58.5338C83.8464 58.1969 83.8464 58.0284 84.0104 57.8599C84.1744 57.6915 84.3384 57.523 84.6665 57.3545C84.8305 57.186 85.1585 57.186 85.4866 57.186C85.6506 57.186 85.8146 57.186 85.9786 57.186C86.1427 57.186 86.3067 57.186 86.4707 57.3545C86.6347 57.3545 86.7988 57.523 86.7988 57.523C86.9628 57.6915 86.9628 57.6915 87.1268 57.8599C87.1268 58.0284 87.2908 58.1969 87.2908 58.3654C87.4548 58.7023 87.4548 58.8708 87.4548 59.2078ZM85.6506 57.6915C85.4866 57.6915 85.4866 57.6915 85.3225 57.6915C85.1585 57.6915 85.1585 57.8599 85.1585 57.8599C85.1585 57.8599 84.9945 58.0284 84.9945 58.1969C84.9945 58.3654 84.9945 58.3654 84.8305 58.5338H86.3067C86.3067 58.3654 86.3067 58.1969 86.3067 58.1969C86.3067 58.0284 86.3067 58.0284 86.1427 57.8599L85.9786 57.6915C85.8146 57.6915 85.8146 57.6915 85.6506 57.6915Z" fill="white"/>
<path d="M88.9311 60.0501C88.9311 60.2186 88.9311 60.2186 89.0951 60.3871C89.0951 60.5556 89.2592 60.5556 89.4232 60.724C89.5872 60.724 89.5872 60.8925 89.7512 60.8925C89.9152 60.8925 90.0793 60.8925 90.2433 60.8925H90.4073H90.5713C90.5713 60.8925 90.7353 60.8925 90.7353 60.724V60.5556V60.3871L90.5713 60.2186C90.5713 60.2186 90.4073 60.0501 90.2433 60.0501C90.0793 60.0501 90.0793 59.8817 89.9152 59.8817C89.7512 59.8817 89.5872 59.7132 89.4232 59.7132C89.2592 59.7132 89.0951 59.5447 88.9311 59.3762C88.7671 59.2077 88.7671 59.2078 88.6031 59.0393C88.4391 58.8708 88.4391 58.7023 88.4391 58.5338C88.4391 58.3654 88.4391 58.1969 88.6031 58.0284C88.6031 57.8599 88.7671 57.6915 88.9311 57.6915C89.0951 57.523 89.2592 57.523 89.4232 57.3545C89.5872 57.3545 89.7512 57.186 90.0793 57.186H90.2433C90.4073 57.186 90.4073 57.186 90.5713 57.186H90.7353C90.7353 57.186 90.8994 57.186 90.8994 57.3545V57.186H91.5554V58.5338H91.0634C91.0634 58.3654 91.0634 58.1969 90.8994 58.1969C90.8994 58.0284 90.7353 58.0284 90.7353 57.8599C90.5713 57.8599 90.5713 57.6915 90.4073 57.6915C90.2433 57.6915 90.0793 57.6915 90.0793 57.6915H89.9152H89.7512C89.7512 57.6915 89.5872 57.6915 89.5872 57.8599V58.0284C89.5872 58.1969 89.5872 58.1969 89.5872 58.1969L89.7512 58.3654C89.9152 58.3654 89.9152 58.5338 90.0793 58.5338C90.2433 58.5338 90.2433 58.5339 90.4073 58.7023C90.5713 58.7023 90.7353 58.8708 90.8994 58.8708C91.0634 58.8708 91.2274 59.0393 91.3914 59.2077C91.5554 59.3762 91.5554 59.3762 91.7195 59.5447C91.7195 59.7132 91.8835 59.8817 91.8835 60.0501C91.8835 60.2186 91.8835 60.3871 91.7195 60.5556C91.7195 60.724 91.5554 60.8925 91.3914 60.8925C91.2274 61.061 91.0634 61.061 90.8994 61.061C90.7353 61.061 90.5713 61.061 90.4073 61.061C90.2433 61.061 90.2433 61.061 90.0793 61.061C89.9152 61.061 89.9152 61.061 89.7512 61.061C89.5872 61.061 89.5872 61.061 89.4232 60.8925C89.2592 60.8925 89.2592 60.8925 89.2592 60.724V60.8925H88.6031V59.5447H88.9311V60.0501Z" fill="white"/>
<path d="M92.3755 57.3545C92.5395 57.3545 92.7036 57.3545 92.7036 57.186C92.8676 57.186 92.8676 57.0176 93.0316 57.0176C93.1956 56.8491 93.1956 56.8491 93.1956 56.6806C93.1956 56.5121 93.3597 56.5121 93.3597 56.3437H94.0157V57.3545H94.9999V58.0284H94.0157C94.0157 58.3654 94.0157 58.7023 94.0157 59.0393C94.0157 59.2078 94.0157 59.5447 94.0157 59.7132C94.0157 59.8817 94.0157 60.0502 94.0157 60.0502V60.2186C94.0157 60.3871 94.0157 60.3871 94.0157 60.5556C94.0157 60.7241 94.0157 60.7241 94.0157 60.7241L94.1798 60.8925H94.3438C94.3438 60.8925 94.3438 60.8925 94.5078 60.8925H94.6718C94.6718 60.8925 94.8358 60.8925 94.8358 60.7241C94.8358 60.7241 94.9999 60.5556 94.9999 60.3871L95.3279 60.7241C95.1639 60.8925 94.9999 61.061 94.8358 61.2295C94.6718 61.398 94.5078 61.398 94.5078 61.5665C94.3438 61.5665 94.1798 61.7349 94.1798 61.7349C94.0157 61.7349 94.0157 61.7349 93.8517 61.7349C93.6877 61.7349 93.6877 61.7349 93.5237 61.7349C93.3597 61.7349 93.3597 61.7349 93.1956 61.7349C93.0316 61.7349 93.0316 61.5665 92.8676 61.5665C92.8676 61.5665 92.7036 61.398 92.7036 61.2295C92.7036 61.061 92.5395 61.061 92.5395 60.8925C92.5395 60.7241 92.5395 60.5556 92.5395 60.3871V58.5339H92.0475V57.3545H92.3755Z" fill="white"/>
<path d="M97.2962 60.8925C97.2962 61.061 97.2962 61.061 97.2962 61.061C97.2962 61.061 97.2962 61.2295 97.1321 61.2295L96.9681 61.3979H96.8041C96.6401 61.3979 96.6401 61.3979 96.6401 61.3979C96.6401 61.3979 96.4761 61.3979 96.4761 61.2295L96.312 61.061V60.8925C96.312 60.724 96.312 60.724 96.312 60.724C96.312 60.724 96.312 60.5556 96.4761 60.5556L96.6401 60.3871H96.8041H96.9681C96.9681 60.3871 97.1321 60.3871 97.1321 60.5556C97.1321 60.724 97.2962 60.724 97.2962 60.724C97.2962 60.724 97.2962 60.724 97.2962 60.8925Z" fill="white"/>
<path d="M118.455 57.6915L118.127 57.1861L119.931 55.8383H120.423V60.2186V60.3871V60.5556V60.7241V60.8925H121.079V61.5664H118.783V61.061C118.947 61.061 118.947 61.061 118.947 61.061C118.947 61.061 119.111 61.061 119.111 60.8925C119.111 60.8925 119.111 60.7241 119.275 60.7241C119.275 60.5556 119.275 60.5556 119.275 60.3871V57.1861L118.455 57.6915Z" fill="white"/>
<path d="M122.227 60.7241V60.5556C122.227 60.5556 122.227 60.3871 122.391 60.3871L122.555 60.2186H122.719C122.883 60.2186 122.883 60.2186 122.883 60.2186C122.883 60.2186 123.048 60.2186 123.048 60.3871V60.5556V60.7241C123.048 60.7241 123.048 60.7241 123.048 60.8925C123.048 60.8925 123.048 60.8925 123.048 61.061L123.212 61.2295C123.212 61.2295 123.376 61.2295 123.54 61.2295C123.704 61.2295 123.868 61.2295 124.032 61.061C124.196 60.8925 124.196 60.8925 124.36 60.7241C124.524 60.5556 124.524 60.3871 124.524 60.0501C124.524 59.8817 124.524 59.5447 124.524 59.3762V59.2078C124.524 59.2078 124.524 59.2078 124.524 59.0393L124.36 59.2078C124.36 59.2078 124.196 59.3762 124.032 59.3762C123.868 59.3762 123.868 59.3762 123.704 59.5447C123.54 59.5447 123.54 59.5447 123.376 59.5447C123.048 59.5447 122.883 59.5447 122.719 59.3762C122.555 59.2078 122.391 59.2078 122.227 59.0393C122.063 58.8708 122.063 58.7023 121.899 58.3654C121.899 58.1969 121.735 57.8599 121.735 57.6915C121.735 57.3545 121.735 57.186 121.899 57.0176C122.063 56.8491 122.063 56.6806 122.227 56.5121C122.391 56.3436 122.555 56.1752 122.883 56.1752C123.048 56.0067 123.376 56.0067 123.704 56.0067C124.032 56.0067 124.36 56.0067 124.524 56.1752C124.688 56.3436 125.016 56.5121 125.18 56.6806C125.344 56.8491 125.508 57.186 125.508 57.523C125.508 57.8599 125.672 58.1969 125.672 58.5338C125.672 58.7023 125.672 58.8708 125.672 59.2078C125.672 59.3762 125.672 59.7132 125.508 59.8817C125.508 60.0501 125.344 60.3871 125.344 60.5556C125.18 60.7241 125.18 60.8925 125.016 61.061C124.852 61.2295 124.688 61.398 124.36 61.398C124.196 61.5664 123.868 61.5664 123.54 61.5664C123.212 61.5664 123.048 61.5664 122.883 61.398C122.719 61.398 122.555 61.2295 122.391 61.2295C122.227 61.061 122.227 61.061 122.063 60.8925C122.227 61.061 122.227 60.8925 122.227 60.7241ZM123.868 59.0393C124.032 59.0393 124.032 59.0393 124.032 59.0393C124.032 59.0393 124.196 59.0393 124.196 58.8708L124.36 58.7023L124.524 58.5338C124.524 58.1969 124.524 58.0284 124.524 57.8599C124.524 57.6915 124.524 57.3545 124.36 57.186C124.36 57.0176 124.196 56.8491 124.196 56.6806C124.032 56.5121 124.032 56.5121 123.868 56.5121C123.704 56.5121 123.704 56.5121 123.54 56.6806C123.376 56.6806 123.376 56.8491 123.376 56.8491C123.376 57.0175 123.212 57.0176 123.212 57.186C123.212 57.3545 123.212 57.523 123.212 57.523C123.212 57.523 123.212 57.6915 123.212 57.8599C123.212 58.0284 123.212 58.0284 123.212 58.1969C123.212 58.3654 123.212 58.3654 123.212 58.5338C123.212 58.7023 123.212 58.7023 123.376 58.8708L123.54 59.0393C123.704 59.0393 123.868 59.0393 123.868 59.0393Z" fill="white"/>
<path d="M130.428 57.3546C130.428 57.523 130.428 57.6915 130.264 57.6915C130.264 57.86 130.1 57.86 130.1 58.0284C129.936 58.1969 129.936 58.1969 129.772 58.3654C129.608 58.5339 129.608 58.5339 129.444 58.5339C129.772 58.7023 130.1 59.0393 130.264 59.3762C130.428 59.7132 130.593 59.8816 130.593 60.2186C130.593 60.5555 130.593 60.724 130.428 60.8925C130.264 61.061 130.1 61.2294 129.936 61.3979C129.772 61.5664 129.608 61.5664 129.28 61.7349C129.116 61.7349 128.788 61.9033 128.624 61.9033C128.46 61.9033 128.296 61.9033 128.296 61.9033C128.132 61.9033 127.968 61.9033 127.968 61.7349C127.804 61.7349 127.64 61.5664 127.64 61.5664C127.476 61.5664 127.476 61.3979 127.312 61.2294C127.148 61.061 127.148 61.061 127.148 60.8925C127.148 60.724 127.148 60.5556 127.148 60.3871C127.148 60.2186 127.148 60.0501 127.312 59.8817C127.312 59.7132 127.476 59.5447 127.476 59.5447C127.64 59.3762 127.64 59.3762 127.804 59.2078C127.968 59.0393 128.132 59.0393 128.132 58.8708C127.968 58.7023 127.804 58.7023 127.64 58.5339C127.476 58.3654 127.476 58.3654 127.312 58.1969C127.312 58.0284 127.148 58.0285 127.148 57.86C127.148 57.6915 127.148 57.6915 127.148 57.523C127.148 57.1861 127.148 57.0176 127.312 56.8491C127.476 56.6807 127.64 56.5122 127.804 56.3437C127.968 56.1752 128.132 56.1752 128.296 56.0068C128.46 56.0068 128.788 55.8383 128.952 55.8383C129.116 55.8383 129.28 55.8383 129.608 56.0068C129.772 56.0068 129.936 56.1752 130.1 56.3437C130.264 56.5122 130.428 56.6807 130.428 56.8491C130.428 56.8491 130.428 57.0176 130.428 57.3546ZM129.608 60.5556C129.608 60.3871 129.608 60.3871 129.608 60.2186C129.608 60.0501 129.444 60.0501 129.444 59.8817C129.444 59.7132 129.28 59.7132 129.116 59.5447C128.952 59.3762 128.788 59.3762 128.624 59.2078C128.46 59.3762 128.46 59.3762 128.296 59.5447C128.296 59.7132 128.132 59.7132 128.132 59.8817C128.132 60.0501 127.968 60.0501 127.968 60.2186C127.968 60.3871 127.968 60.3871 127.968 60.5556C127.968 60.724 127.968 60.724 127.968 60.8925C127.968 61.061 128.132 61.061 128.132 61.2294C128.132 61.2294 128.296 61.3979 128.46 61.3979C128.624 61.3979 128.624 61.3979 128.788 61.3979C128.952 61.3979 128.952 61.3979 129.116 61.3979C129.28 61.3979 129.28 61.2294 129.28 61.2294L129.444 61.061C129.608 60.724 129.608 60.5556 129.608 60.5556ZM128.132 57.1861C128.132 57.3546 128.132 57.3545 128.132 57.523C128.132 57.6915 128.296 57.6915 128.296 57.86C128.296 58.0285 128.46 58.0284 128.624 58.1969C128.788 58.1969 128.788 58.3654 128.952 58.3654C129.116 58.3654 129.116 58.1969 129.116 58.1969C129.116 58.1969 129.28 58.0285 129.28 57.86C129.28 57.6915 129.444 57.6915 129.444 57.523C129.444 57.3545 129.444 57.3546 129.444 57.3546C129.444 57.1861 129.444 57.1861 129.444 57.0176C129.444 56.8491 129.28 56.8491 129.28 56.8491L129.116 56.6807C128.952 56.6807 128.952 56.6807 128.788 56.6807C128.624 56.6807 128.624 56.6807 128.46 56.6807C128.296 56.6807 128.296 56.8491 128.296 56.8491L128.132 57.0176C128.296 57.0176 128.132 57.1861 128.132 57.1861Z" fill="white"/>
<path d="M134.693 60.2186C134.693 60.3871 134.693 60.5556 134.693 60.5556V60.724V60.8925V61.061H135.349V61.7349H133.053V61.2295C133.217 61.2295 133.217 61.2295 133.217 61.2295C133.217 61.2295 133.381 61.2294 133.381 61.061L133.545 60.8925C133.545 60.724 133.545 60.724 133.545 60.5556V60.3871H131.577V59.7132L134.201 56.1752H134.693V59.7132H135.513V60.3871H134.693V60.2186ZM132.233 59.5447H133.545V57.86L132.233 59.5447Z" fill="white"/>
</svg>
