<svg width="101" height="120" viewBox="0 0 101 120" fill="none" xmlns="http://www.w3.org/2000/svg">
<path d="M100.381 90.1797L50.1905 120L0 90.1797V30.7075L50.1905 0.887207L100.381 30.7075V90.1797Z" fill="#D71016"/>
<path fill-rule="evenodd" clip-rule="evenodd" d="M17.7143 27.8434L16.8942 26.3271L23.9472 22.1152L24.7673 23.6315L17.7143 27.8434ZM31.9842 19.4196L31.1641 17.9033L38.217 13.6914L39.0371 15.2077L31.9842 19.4196ZM6.5609 39.2998H4.75666V33.4031L9.67731 30.539L10.6614 32.0553L6.5609 34.5825V39.2998ZM82.6668 27.8434L75.6139 23.6315L76.434 22.1152L83.4869 26.3271L82.6668 27.8434ZM68.561 19.4196L61.5081 15.2077L62.3282 13.6914L69.3811 17.9033L68.561 19.4196ZM4.75665 72.9951H6.56089V64.5713H4.75665V72.9951ZM4.75665 56.1475H6.56089V47.7237H4.75665V56.1475ZM9.6773 90.3482L4.75665 87.3156V81.4189H6.56089V86.3047L10.6614 88.6634L9.6773 90.3482ZM89.8838 88.6634L90.7039 90.3482L95.6245 87.3156V81.4189H93.9843V86.3047L89.8838 88.6634ZM61.5081 105.68L62.3282 107.196L69.3811 102.984L68.561 101.468L61.5081 105.68ZM75.6139 97.2557L76.434 98.772L83.4869 94.5601L82.6668 93.0438L75.6139 97.2557ZM50.1906 114.272L45.2699 111.408L46.09 109.891L50.1906 112.25L54.2911 109.891L55.1112 111.408L50.1906 114.272ZM31.1641 102.984L38.217 107.196L39.0371 105.68L31.9842 101.468L31.1641 102.984ZM16.8942 94.5601L23.9471 98.772L24.7673 97.2557L17.7143 93.0438L16.8942 94.5601ZM93.9843 39.2998H95.6245V33.4031L90.7039 30.539L89.8838 32.0553L93.9843 34.5825V39.2998ZM95.6245 72.9951H93.8203V64.5713H95.6245V72.9951ZM95.6245 56.1475H93.8203V47.7237H95.6245V56.1475Z" fill="white"/>
<path d="M70.6933 57.3268C72.9896 55.8105 75.6139 51.7671 75.6139 51.7671C75.6139 51.7671 76.9261 49.9139 76.7621 44.3541C76.7621 44.3541 76.598 40.9846 76.27 43.6802C75.942 46.3758 76.106 48.3976 74.9578 50.0823C73.8097 51.7671 72.6615 52.9464 72.6615 52.9464L70.2012 55.3051C70.2012 55.3051 69.0531 56.4844 69.7091 54.9681C70.3652 53.4519 71.8414 51.0932 72.3335 48.903C72.9896 46.5443 73.3176 45.8704 73.3176 45.7019C73.3176 45.5335 74.6298 41.49 75.6139 40.3107C75.6139 40.3107 77.0901 38.7944 76.598 35.4249C76.598 35.4249 75.942 32.8977 75.6139 32.5608C75.2859 32.2238 74.6298 30.876 75.1219 33.0662C75.6139 35.4249 75.6139 36.9412 75.1219 37.952C74.6298 38.9629 74.1377 39.6368 74.1377 39.6368C74.1377 39.6368 73.1536 41.3216 71.8414 39.8053C71.8414 39.8053 70.6933 36.2673 69.2171 34.414C67.7409 32.7293 67.4128 30.7075 67.4128 30.7075C67.4128 30.7075 66.7568 29.8652 67.2488 31.5499C67.5769 33.0662 68.2329 34.414 68.2329 34.414C68.2329 34.414 68.725 35.5934 68.725 35.9303C68.725 36.2673 69.2171 37.2781 69.2171 37.2781C69.2171 37.2781 70.3652 38.7944 69.7091 40.8161C69.7091 40.8161 69.5451 42.1639 69.3811 42.3324C69.2171 42.5009 68.397 43.0063 67.9049 43.1748C67.4128 43.1748 65.6086 43.6802 65.4446 43.8487C65.2806 44.0172 63.6403 43.8487 63.4763 43.8487C63.3123 43.6802 60.5239 43.6802 59.5398 42.8378C58.5557 42.1639 57.8996 41.6585 57.8996 41.6585C57.8996 41.6585 56.7515 41.49 57.8996 42.3324C59.0478 43.1748 59.7038 43.8487 59.7038 43.8487C59.7038 43.8487 60.852 44.3541 61.8361 44.5226C62.8202 44.6911 63.6404 44.8596 63.6404 44.8596C63.6404 44.8596 64.4605 44.8596 64.9525 45.365C65.4446 45.8704 66.5927 45.7019 66.5927 45.7019L69.0531 45.365C69.0531 45.365 70.2012 44.5226 70.0372 46.2074C69.8732 47.8921 69.2171 49.4084 69.2171 49.4084L67.5769 53.1149L66.4287 54.7997L66.2647 53.6203C66.2647 53.6203 66.2647 52.104 65.7726 53.7888C65.2806 55.642 65.2806 56.4844 65.2806 56.4844C65.2806 56.4844 61.016 61.3702 60.3599 61.8757C59.8679 62.3811 57.4075 64.7398 57.4075 64.7398L55.9313 66.0876L55.2752 66.7615L54.6192 67.6039C54.6192 67.6039 54.1271 67.6039 53.9631 67.4354C53.7991 67.2669 51.3387 67.9408 50.6827 68.4462C50.0266 68.9517 49.5345 67.9408 49.5345 67.9408C49.5345 67.9408 48.3864 67.7723 48.2223 67.7723C48.0583 67.7723 46.4181 67.6039 46.4181 67.6039L45.434 66.593C45.434 66.593 42.6456 64.5713 42.1535 63.8974C41.6615 63.392 38.053 60.8648 38.053 60.8648L37.889 56.9899C37.889 56.9899 37.3969 55.1366 37.0689 56.9899C36.7408 58.8431 36.9049 60.0224 36.9049 60.0224C36.9049 60.0224 31.4921 56.1475 30.672 54.9681C29.8519 53.7888 27.3916 49.9139 27.2276 48.7345C27.0636 47.5552 26.8995 46.2074 26.8995 46.2074C26.8995 46.2074 26.7355 45.365 27.7197 45.8704C28.5398 46.2074 30.672 46.2074 30.672 46.2074C30.672 46.2074 31.9842 46.0389 32.3123 45.8704C32.6403 45.7019 33.4604 45.5335 33.7884 45.7019C34.1165 45.7019 34.1165 45.365 33.9525 45.1965C33.7884 45.028 33.4604 44.8596 33.4604 44.6911C33.4604 44.5226 33.9525 44.1857 34.6086 43.8487C35.2646 43.6802 37.0689 42.5009 37.0689 42.5009L39.0371 40.4792L39.5292 39.6368C39.5292 39.6368 40.1853 38.1205 38.7091 39.6368C37.3969 41.1531 36.0847 41.827 35.9207 41.827C35.7567 41.827 32.6403 43.0063 32.3123 43.1748C31.9842 43.3433 28.5398 43.5118 27.8837 43.1748C27.0636 42.8378 26.5715 41.6585 27.0636 39.9737C27.5556 38.289 28.2117 35.9303 28.2117 35.9303L29.5239 33.4032C29.5239 33.4032 30.8361 30.876 30.8361 30.7075C30.8361 30.5391 31.6562 28.8543 31.1641 28.8543C31.1641 28.8543 30.18 30.7075 30.016 30.876C29.8519 30.876 28.8678 32.5608 28.8678 32.5608C28.8678 32.5608 27.0636 35.0879 26.7355 35.4249C26.4075 35.7618 26.2435 36.9412 25.4234 37.2781C24.6032 37.4466 23.6191 37.2781 23.2911 35.9303C23.1271 34.5825 22.963 32.7293 23.4551 32.0554C23.9472 31.3815 24.1112 30.7075 24.1112 30.7075C24.1112 30.7075 23.9472 30.0336 23.2911 31.0445C22.799 32.0554 22.3069 33.0662 22.1429 33.4032C21.9789 33.5716 21.8149 35.0879 21.8149 35.2564C21.8149 35.4249 22.635 37.952 22.963 38.6259C23.2911 39.2998 23.7831 40.3107 23.4551 42.1639C23.2911 43.8487 22.963 45.8704 22.963 45.8704C22.963 45.8704 22.799 52.6095 25.4234 54.7997L26.4075 55.979C26.4075 55.979 26.4075 59.0116 26.7355 59.6855C27.0636 60.3594 27.5556 63.7289 32.4763 65.7506C32.4763 65.7506 34.9366 66.2561 37.3969 66.0876C37.3969 66.0876 38.381 68.2778 40.0213 68.6147C41.6615 68.7832 42.4816 69.1202 42.4816 69.1202H42.9736C42.9736 69.1202 43.1377 69.2886 43.1377 69.6256C43.1377 69.7941 43.1377 70.2995 43.1377 70.2995C42.9736 70.468 43.1377 71.1419 43.1377 71.1419L42.9736 71.6473C42.9736 71.6473 42.8096 71.8158 42.6456 71.6473C42.4816 71.4788 41.0054 70.6364 40.6773 70.468C40.3493 70.2995 35.9207 68.1093 35.9207 68.1093C35.9207 68.1093 32.1482 67.2669 31.3281 66.2561C31.3281 66.2561 30.344 65.9191 30.18 66.4245C30.016 66.7615 30.016 67.7723 30.18 67.9408C30.344 68.1093 31.1641 70.131 31.1641 70.131C31.1641 70.131 32.8043 73.669 34.4445 74.6799C36.0847 75.6907 37.725 76.8701 38.7091 76.8701C39.5292 76.7016 42.3176 77.8809 42.8096 78.2179C43.1377 78.5548 43.6297 79.2287 43.6297 79.5657V80.745C43.6297 80.9135 43.6297 82.2613 43.6297 82.5983C43.6297 82.9352 43.7938 83.9461 43.4657 84.9569C43.1377 85.9678 42.8096 87.3156 42.8096 87.3156C42.8096 87.3156 42.3176 89.5058 42.3176 89.6743C42.3176 90.0112 41.9895 92.0329 41.9895 92.0329C41.9895 92.0329 50.1906 100.625 60.3599 92.2014C60.3599 92.2014 59.5398 88.3265 59.3758 87.821C59.2118 87.3156 58.3917 84.62 58.2276 84.283C58.0636 83.9461 58.0636 81.2505 58.0636 81.2505L58.2276 80.0711C58.2276 80.0711 58.5557 79.7342 58.5557 79.3972C58.5557 79.0603 58.7197 78.5548 58.7197 78.5548C58.7197 78.5548 60.852 77.7124 62.0001 77.8809C63.1483 78.0494 65.1165 77.0385 65.6086 76.7016C66.2647 76.3646 68.2329 74.1744 68.397 74.006C68.561 73.669 70.5292 71.8158 70.5292 71.8158C70.5292 71.8158 71.1853 70.8049 71.1853 70.6364C71.3494 70.2995 71.8414 69.2886 71.8414 69.2886C71.8414 69.2886 72.1695 68.4463 71.0213 68.2778C70.0372 68.1093 69.3811 68.7832 69.3811 68.7832C69.3811 68.7832 67.4128 69.2886 66.4287 69.2886C65.4446 69.1202 61.6721 71.1419 61.016 71.4788C60.3599 71.8158 59.7038 72.3212 59.3758 72.3212C59.0477 72.3212 57.8996 72.4897 57.8996 72.1527C58.0636 71.8158 58.0636 71.4788 57.8996 71.1419C57.7356 70.8049 57.4075 70.468 57.4075 70.468C57.5716 69.9625 58.3917 68.9517 58.3917 68.9517C58.3917 68.9517 61.6721 68.2778 62.9843 66.7615C62.9843 66.7615 69.2171 66.7615 71.0213 65.2452C71.0213 65.2452 74.3017 63.5604 74.7938 58.6746C74.7938 58.6746 74.9578 56.9899 74.6298 56.6529C74.3017 56.316 74.3017 56.4844 74.1377 56.9899C73.9737 57.4953 74.1377 59.854 72.1695 61.8757C70.2012 63.7289 69.5451 64.2343 65.1165 64.4028C65.1165 64.4028 66.1007 63.2235 66.2647 61.2018C66.2647 60.6963 68.2329 58.8431 70.6933 57.3268ZM29.3599 61.2018C27.7197 59.517 27.2276 56.4844 27.2276 56.4844C27.5556 56.316 28.8678 57.6638 29.0318 57.6638C29.1958 57.6638 34.9366 62.2126 35.5927 62.5496C36.4128 62.8865 36.5768 63.5604 36.5768 63.5604C32.4763 63.8974 31.1641 62.8865 29.3599 61.2018Z" fill="white"/>
</svg>
